# xmcd CD database file
#
# Track frame offsets:
#	182
#	14642
#	28907
#	43137
#	62390
#	77282
#	94197
#	108495
#	134120
#	150535
#	172635
#	195155
#	218365
#	246150
#	259382
#	292532
#	311882
#
# Disc length: 4471 seconds
#
# Revision: 7
# Processed by: cddbd v1.5.2PL0 Copyright (c) Steve Scherf et al.
# Submitted via: CDex 1.78
#
DISCID=dd117511
DTITLE=Various Artist - Atlantic Blues: Chicago
DYEAR=1986
DGENRE=Blues
TTITLE0=Johnny Jones - Chicago Blues
TTITLE1=Buddy Guy and Junior Wells - Poor Man's Plea
TTITLE2=Buddy Guy and Junior Wells - My Baby She Left Me
TTITLE3=Buddy Guy and Junior Wells - T-Bone Shuffle
TTITLE4=Freddie King - I Wonder Why
TTITLE5=Freddie King - Play It Cool
TTITLE6=Freddie King - Woke Up This Morning
TTITLE7=Otis Rush - Gambler's Blues
TTITLE8=Otis Rush - Feel So Bad
TTITLE9=Otis Rush - Reap What You Sow
TTITLE10=Howlin' Wolf - Highway 49
TTITLE11=Muddy Waters - Honey Bee
TTITLE12=Koko Taylor - Wang Dang Doodle
TTITLE13=Johnny Shines - Dust My Broom
TTITLE14=Luther Allison - Please Send Me Someone To Love
TTITLE15=Luther "Guitar Jr." Johnson - Walkin' The Dog
TTITLE16=J.B. Hutto - I Feel So Good
EXTD=YEAR: 1986
EXTT0=
EXTT1=
EXTT2=
EXTT3=
EXTT4=
EXTT5=
EXTT6=
EXTT7=
EXTT8=
EXTT9=
EXTT10=
EXTT11=
EXTT12=
EXTT13=
EXTT14=
EXTT15=
EXTT16=
PLAYORDER=
